<?xml version="1.0" encoding="UTF-8" standalone="no"?>
<!-- Created with Inkscape (http://www.inkscape.org/) -->

<svg
   xmlns:dc="http://purl.org/dc/elements/1.1/"
   xmlns:cc="http://creativecommons.org/ns#"
   xmlns:rdf="http://www.w3.org/1999/02/22-rdf-syntax-ns#"
   xmlns:svg="http://www.w3.org/2000/svg"
   xmlns="http://www.w3.org/2000/svg"
   xmlns:sodipodi="http://sodipodi.sourceforge.net/DTD/sodipodi-0.dtd"
   xmlns:inkscape="http://www.inkscape.org/namespaces/inkscape"
   width="210mm"
   height="297mm"
   viewBox="0 0 210 297"
   version="1.1"
   id="svg8"
   inkscape:version="0.92.4 (5da689c313, 2019-01-14)"
   sodipodi:docname="time.svg">
  <defs
     id="defs2" />
  <sodipodi:namedview
     id="base"
     pagecolor="#ffffff"
     bordercolor="#666666"
     borderopacity="1.0"
     inkscape:pageopacity="0.0"
     inkscape:pageshadow="2"
     inkscape:zoom="0.35"
     inkscape:cx="231.5047"
     inkscape:cy="536.84337"
     inkscape:document-units="mm"
     inkscape:current-layer="layer1"
     showgrid="false"
     inkscape:window-width="1280"
     inkscape:window-height="961"
     inkscape:window-x="-8"
     inkscape:window-y="-8"
     inkscape:window-maximized="1" />
  <metadata
     id="metadata5">
    <rdf:RDF>
      <cc:Work
         rdf:about="">
        <dc:format>image/svg+xml</dc:format>
        <dc:type
           rdf:resource="http://purl.org/dc/dcmitype/StillImage" />
        <dc:title></dc:title>
      </cc:Work>
    </rdf:RDF>
  </metadata>
  <g
     inkscape:label="Capa 1"
     inkscape:groupmode="layer"
     id="layer1">
    <g
       id="g4800"
       transform="matrix(1.148679,0,0,1.148679,437.33063,128.92812)">
      <circle
         id="circle3846"
         r="91.520317"
         cy="18.147762"
         cx="-289.01547"
         style="fill:#aa0000;stroke-width:0.35750124" />
      <path
         id="path3848"
         d="m -270.48584,-35.994743 c -8.28902,-8.339446 -19.76945,-13.50282 -32.4568,-13.50282 -25.27285,0 -45.76018,20.487325 -45.76018,45.7601572 0,12.687003 5.1634,24.1677928 13.50247,32.4564598 l 46.18486,46.18451 v 6.9105 l 24.67082,24.471666 v 0.0192 c 33.15395,-9.258566 58.71351,-36.717516 65.23039,-70.927876 z"
         style="opacity:0.79000005;fill:#6c5353;stroke-width:0.35750124"
         inkscape:connector-curvature="0" />
      <circle
         id="circle3850"
         r="45.760159"
         cy="-3.7374163"
         cx="-302.94269"
         style="fill:#acabb1;stroke-width:0.35750124" />
      <path
         id="path3852"
         d="m -302.94264,-49.497563 v 91.520317 c 25.27283,0 45.76014,-20.487329 45.76014,-45.7601598 0,-25.2728322 -20.48731,-45.7601572 -45.76014,-45.7601572 z"
         style="fill:#898890;stroke-width:0.35750124"
         inkscape:connector-curvature="0" />
      <circle
         id="circle3854"
         r="39.449192"
         cy="-3.7374163"
         cx="-302.94269"
         style="fill:#ffffff;stroke-width:0.35750124" />
      <path
         id="path3856"
         d="m -302.94264,-43.185887 v 78.896961 c 21.78647,0 39.44847,-17.662011 39.44847,-39.4484798 0,-21.7864922 -17.66165,-39.4484812 -39.44847,-39.4484812 z"
         style="fill:#d8d7da;stroke-width:0.35750124"
         inkscape:connector-curvature="0" />
      <polygon
         transform="matrix(0.35750126,0,0,0.35750126,-380.53579,-73.372578)"
         id="polygon3858"
         points="159.664,181.541 159.664,208.024 222.064,208.024 285.776,144.605 267.049,125.879 211.387,181.541 " />
      <rect
         id="rect3860"
         height="75.603645"
         width="55.707989"
         style="fill:#ffffff;stroke-width:0.35750124"
         y="6.2104368"
         x="-289.01547" />
      <rect
         id="rect3862"
         height="75.603645"
         width="27.853994"
         style="fill:#e1e3fa;stroke-width:0.35750124"
         y="6.2104368"
         x="-261.16147" />
      <g
         transform="matrix(0.35750126,0,0,0.35750126,-380.53579,-73.372578)"
         id="g3870">
	<rect
   id="rect3864"
   height="11.13"
   width="66.782997"
   style="fill:#c6c5ca"
   y="378.435"
   x="322.78299" />

	<circle
   id="circle3866"
   r="16.695999"
   cy="384"
   cx="294.957"
   style="fill:#c6c5ca" />

	<rect
   id="rect3868"
   height="11.13"
   width="66.782997"
   style="fill:#c6c5ca"
   y="322.78299"
   x="322.78299" />

</g>
      <polygon
         transform="matrix(0.35750126,0,0,0.35750126,-380.53579,-73.372578)"
         id="polygon3872"
         points="288.387,330.059 303.599,311.652 311.652,318.307 289.556,345.043 274.69,331.886 281.613,324.064 " />
      <rect
         id="rect3874"
         height="3.9789889"
         width="23.875004"
         style="fill:#c6c5ca;stroke-width:0.35750124"
         y="22.126736"
         x="-265.14047" />
      <polygon
         transform="matrix(0.35750126,0,0,0.35750126,-380.53579,-73.372578)"
         id="polygon3876"
         points="288.387,274.406 303.599,256 311.652,262.655 289.556,289.391 274.69,276.234 281.613,268.412 " />
    </g>
    <g
       id="g3878"
       transform="matrix(0.26458333,0,0,0.26458333,257.32619,-26.245237)">
</g>
    <g
       id="g3880"
       transform="matrix(0.26458333,0,0,0.26458333,257.32619,-26.245237)">
</g>
    <g
       id="g3882"
       transform="matrix(0.26458333,0,0,0.26458333,257.32619,-26.245237)">
</g>
    <g
       id="g3884"
       transform="matrix(0.26458333,0,0,0.26458333,257.32619,-26.245237)">
</g>
    <g
       id="g3886"
       transform="matrix(0.26458333,0,0,0.26458333,257.32619,-26.245237)">
</g>
    <g
       id="g3888"
       transform="matrix(0.26458333,0,0,0.26458333,257.32619,-26.245237)">
</g>
    <g
       id="g3890"
       transform="matrix(0.26458333,0,0,0.26458333,257.32619,-26.245237)">
</g>
    <g
       id="g3892"
       transform="matrix(0.26458333,0,0,0.26458333,257.32619,-26.245237)">
</g>
    <g
       id="g3894"
       transform="matrix(0.26458333,0,0,0.26458333,257.32619,-26.245237)">
</g>
    <g
       id="g3896"
       transform="matrix(0.26458333,0,0,0.26458333,257.32619,-26.245237)">
</g>
    <g
       id="g3898"
       transform="matrix(0.26458333,0,0,0.26458333,257.32619,-26.245237)">
</g>
    <g
       id="g3900"
       transform="matrix(0.26458333,0,0,0.26458333,257.32619,-26.245237)">
</g>
    <g
       id="g3902"
       transform="matrix(0.26458333,0,0,0.26458333,257.32619,-26.245237)">
</g>
    <g
       id="g3904"
       transform="matrix(0.26458333,0,0,0.26458333,257.32619,-26.245237)">
</g>
    <g
       id="g3906"
       transform="matrix(0.26458333,0,0,0.26458333,257.32619,-26.245237)">
</g>
  </g>
</svg>
